PathFileType	4	(X/Y/Z)	/Users/itak/Documents/Research/Walk-IL/dataset/trc/00237_00009.trc
DataRate	CameraRate	NumFrames	NumMarkers	Units	OrigDataRate	OrigDataStartFrame	OrigNumFrames
100.000000	100.000000	4	53	mm	100.000000	474	948
Frame#	Time	RPSI			LPSI			L3			STRN			T10			C7			CLAV			RBAK			LBAK			LSHO			LUPA			LAEL			LAOL			LWTS			LWPS			LFRA			LIFD			LHPS			LHTS			RSHO			RUPA			RAEL			RAOL			RWTS			RWPS			RFRA			RIFD			RHTS			RHPS			RBHD			LFHD			RFHD			LBHD			LHIP			RHIP			RASI			LASI			LKNE			LTHI			LANK			LTIP			LTOE			LMT1			LMT5			LHEE			RKNE			RTHI			RANK			RTIP			RTOE			RMT1			RMT5			RHEE			
		X1	Y1	Z1	X2	Y2	Z2	X3	Y3	Z3	X4	Y4	Z4	X5	Y5	Z5	X6	Y6	Z6	X7	Y7	Z7	X8	Y8	Z8	X9	Y9	Z9	X10	Y10	Z10	X11	Y11	Z11	X12	Y12	Z12	X13	Y13	Z13	X14	Y14	Z14	X15	Y15	Z15	X16	Y16	Z16	X17	Y17	Z17	X18	Y18	Z18	X19	Y19	Z19	X20	Y20	Z20	X21	Y21	Z21	X22	Y22	Z22	X23	Y23	Z23	X24	Y24	Z24	X25	Y25	Z25	X26	Y26	Z26	X27	Y27	Z27	X28	Y28	Z28	X29	Y29	Z29	X30	Y30	Z30	X31	Y31	Z31	X32	Y32	Z32	X33	Y33	Z33	X34	Y34	Z34	X35	Y35	Z35	X36	Y36	Z36	X37	Y37	Z37	X38	Y38	Z38	X39	Y39	Z39	X40	Y40	Z40	X41	Y41	Z41	X42	Y42	Z42	X43	Y43	Z43	X44	Y44	Z44	X45	Y45	Z45	X46	Y46	Z46	X47	Y47	Z47	X48	Y48	Z48	X49	Y49	Z49	X50	Y50	Z50	X51	Y51	Z51	X52	Y52	Z52	X53	Y53	Z53	

475	4.74	-239.6690826416016	1020.326843261719	-586.8477172851562	-282.8424072265625	1029.161499023438	-698.7542724609375	-272.6900329589844	1113.086059570312	-653.6506958007812	-36.81260681152344	1293.651733398438	-738.428955078125	-270.6842346191406	1239.301147460938	-644.82958984375	-208.3190002441406	1499.967407226562	-661.3706665039062	-57.59116363525391	1411.4521484375	-722.0414428710938	-259.1544494628906	1359.759521484375	-571.4295043945312	-267.3965454101562	1468.029418945312	-756.7658081054688	-205.4820098876953	1471.11669921875	-841.9054565429688	-275.1897277832031	1361.090942382812	-905.1709594726562	-305.596435546875	1156.306396484375	-944.0819091796875	-352.5552368164062	1143.4111328125	-871.357666015625	-219.0855712890625	915.87353515625	-937.8084106445312	-277.3546142578125	903.3892211914062	-998.2171630859375	-301.4149780273438	1048.721069335938	-969.3479614257812	-229.7731170654297	720.1817626953125	-949.7658081054688	-266.8166198730469	813.4624633789062	-1001.810485839844	-205.7291412353516	812.5634765625	-971.7890625	-97.92617034912109	1452.613037109375	-524.798583984375	-98.23534393310547	1387.287109375	-455.5537109375	-120.7404479980469	1107.872192382812	-412.4401245117188	-178.7189636230469	1102.7353515625	-488.4240112304688	1.088308095932007	900.2815551757812	-501.6904907226562	-31.94512748718262	880.5680541992188	-426.07080078125	-91.51516723632812	1038.91015625	-410.1427307128906	22.30840682983398	706.289794921875	-517.8486328125	46.4344596862793	780.3651123046875	-501.8716430664062	7.448331356048584	775.49169921875	-441.0111999511719	-128.1083374023438	1665.185180664062	-638.9970092773438	61.63953018188477	1660.860229492188	-763.255615234375	75.44921112060547	1654.613891601562	-664.4710693359375	-103.0271987915039	1667.745849609375	-776.9427490234375	-242.3623352050781	972.08203125	-867.9688110351562	-107.53662109375	979.440185546875	-527.1322021484375	-33.80672073364258	1024.853393554688	-596.6625366210938	-130.0991516113281	1015.247985839844	-861.2976684570312	-185.1235504150391	488.4712524414062	-908.1092529296875	-197.354248046875	635.3434448242188	-909.72119140625	-519.0355834960938	199.2978515625	-685.0485229492188	-343.3453369140625	348.578369140625	-814.7801513671875	-378.7391357421875	39.22415924072266	-713.4863891601562	-387.552978515625	92.04599761962891	-654.0665283203125	-473.8930358886719	89.81620788574219	-730.2501220703125	-509.5169372558594	258.0563659667969	-632.4937744140625	-47.94230270385742	500.5063171386719	-663.654052734375	-36.86818695068359	758.4818725585938	-571.7477416992188	-129.2602081298828	28.84782409667969	-758.05712890625	-45.97417831420898	384.1969604492188	-704.7930908203125	70.71295166015625	41.35555648803711	-840.730224609375	6.897268295288086	39.37676620483398	-872.0714721679688	-17.47206115722656	32.62007904052734	-754.1055908203125	-200.3337097167969	30.01297378540039	-804.5901489257812	
476	4.75	-235.1104278564453	1020.35986328125	-590.3392944335938	-276.9093017578125	1028.849243164062	-702.8065185546875	-267.1197509765625	1113.254272460938	-657.329833984375	-30.13845825195312	1293.558837890625	-739.7179565429688	-264.9403381347656	1239.624877929688	-648.5186767578125	-202.1165771484375	1500.173583984375	-664.4178466796875	-50.89505386352539	1411.413818359375	-723.6871948242188	-253.9973297119141	1360.0849609375	-574.7822875976562	-260.262451171875	1468.139038085938	-760.3994750976562	-197.6466827392578	1471.021850585938	-844.9887084960938	-267.1870727539062	1361.1201171875	-908.8124389648438	-298.2234191894531	1156.467529296875	-947.623046875	-346.6924133300781	1144.462646484375	-875.6464233398438	-216.7829437255859	914.140625	-938.5680541992188	-273.8896789550781	902.8054809570312	-1000.264587402344	-295.5077514648438	1048.72314453125	-972.37451171875	-231.7241363525391	718.7258911132812	-949.7559814453125	-265.4199829101562	812.6213989257812	-1003.187194824219	-205.5603179931641	810.0089721679688	-971.5033569335938	-92.99407196044922	1452.784545898438	-526.833251953125	-93.73784637451172	1387.45849609375	-457.6116027832031	-116.0011825561523	1107.939575195312	-414.5921020507812	-173.6459045410156	1102.755737304688	-490.689453125	6.85697603225708	901.1050415039062	-504.0170288085938	-26.28905868530273	880.9698486328125	-428.5542602539062	-86.53787231445312	1039.046020507812	-412.34033203125	29.47708129882812	707.4534912109375	-520.8270874023438	53.07086944580078	781.583984375	-504.4353332519531	13.8444185256958	776.1902465820312	-443.7597045898438	-122.5507278442383	1665.1845703125	-641.5889282226562	68.56144714355469	1661.198364257812	-763.6214599609375	81.35820770263672	1655.052612304688	-664.7415161132812	-95.89382934570312	1667.78076171875	-779.217529296875	-233.6470336914062	972.0082397460938	-871.4168090820312	-103.8083267211914	979.5294189453125	-528.644775390625	-29.02120018005371	1024.887573242188	-597.1349487304688	-121.7014923095703	1015.356323242188	-863.04931640625	-168.9599304199219	489.7535095214844	-916.7609252929688	-183.4542083740234	636.5075073242188	-916.7671508789062	-508.7657775878906	203.3720092773438	-699.9476318359375	-329.2757263183594	350.6961059570312	-826.698486328125	-368.5318603515625	41.99353408813477	-726.5817260742188	-378.1345520019531	95.47291564941406	-667.0091552734375	-463.0946655273438	93.95966339111328	-744.902587890625	-499.9942626953125	261.8518371582031	-647.0005493164062	-45.04084777832031	500.2508544921875	-664.5015869140625	-33.37302017211914	758.29541015625	-572.8091430664062	-129.2896881103516	28.98661804199219	-758.1741943359375	-43.59502792358398	383.7955017089844	-705.5236206054688	70.79025268554688	41.12368774414062	-840.9337768554688	6.956787586212158	39.22520446777344	-872.1445922851562	-17.42436790466309	32.62330627441406	-754.1415405273438	-200.2896881103516	30.12248229980469	-804.6710815429688	
477	4.76	-230.7017517089844	1020.356506347656	-593.8036499023438	-271.0440063476562	1028.61474609375	-706.8108520507812	-261.675537109375	1113.49658203125	-660.9404907226562	-23.57096672058105	1293.487548828125	-740.9264526367188	-259.3387451171875	1240.039916992188	-652.160888671875	-195.9359283447266	1500.41796875	-667.409912109375	-44.27750778198242	1411.392822265625	-725.25244140625	-248.9018859863281	1360.491577148438	-578.0549926757812	-253.22216796875	1468.300415039062	-763.9591064453125	-189.8512268066406	1470.973876953125	-847.9989624023438	-259.1835632324219	1361.166259765625	-912.3562622070312	-290.7958679199219	1156.63330078125	-950.9287109375	-340.5773315429688	1145.45556640625	-879.6302490234375	-214.2736663818359	912.5592651367188	-939.5369262695312	-270.3030395507812	902.3924560546875	-1002.368957519531	-289.5156555175781	1048.792236328125	-975.2661743164062	-233.5268707275391	717.5452270507812	-950.1620483398438	-263.9641418457031	812.0030517578125	-1004.758911132812	-205.3302612304688	807.6376953125	-971.5482177734375	-88.10574340820312	1453.020385742188	-528.8248901367188	-89.26548004150391	1387.693603515625	-459.6268005371094	-111.2023468017578	1108.052490234375	-416.8150329589844	-168.6037750244141	1102.83837890625	-493.0155029296875	12.61300182342529	901.8865356445312	-506.3110046386719	-20.61814117431641	881.4359130859375	-430.9774169921875	-81.50637054443359	1039.241821289062	-414.5950317382812	36.42735290527344	708.5338745117188	-523.5460815429688	59.56134796142578	782.6876220703125	-506.8776550292969	20.14536476135254	776.9042358398438	-446.3612670898438	-116.932243347168	1665.218994140625	-644.1444091796875	75.4844970703125	1661.426025390625	-764.022216796875	87.30602264404297	1655.400512695312	-665.0615844726562	-88.75437927246094	1667.804443359375	-781.4550170898438	-224.9651336669922	972.113525390625	-874.7874755859375	-100.2947006225586	979.564697265625	-530.0947265625	-24.4388256072998	1024.973510742188	-597.48388671875	-113.3009872436523	1015.61572265625	-864.6856689453125	-152.6399993896484	491.3189086914062	-924.7523803710938	-169.4374084472656	637.890625	-923.3798217773438	-497.7257385253906	206.2397613525391	-715.3182983398438	-314.8926696777344	352.6376647949219	-838.3738403320312	-356.9871215820312	44.79926681518555	-741.2279663085938	-367.56201171875	98.12125396728516	-681.2240600585938	-451.1458435058594	97.45647430419922	-760.7822875976562	-489.8707885742188	264.1785278320312	-661.6585083007812	-42.12609481811523	499.9955139160156	-665.3685302734375	-29.98252487182617	758.0975341796875	-573.84033203125	-129.3033752441406	29.1426830291748	-758.2633056640625	-41.17087173461914	383.3917541503906	-706.2726440429688	70.86106109619141	40.89768600463867	-841.1381225585938	7.024405002593994	39.08917236328125	-872.20458984375	-17.36715507507324	32.62496948242188	-754.1533203125	-200.2331390380859	30.25874710083008	-804.7334594726562	
478	4.77	-226.3938140869141	1020.330993652344	-597.2235107421875	-265.2205810546875	1028.478637695312	-710.7522583007812	-256.3317565917969	1113.81298828125	-664.4755859375	-17.09602737426758	1293.465209960938	-742.0569458007812	-253.8458251953125	1240.526000976562	-655.7443237304688	-189.7945556640625	1500.69921875	-670.3465576171875	-37.74769592285156	1411.410400390625	-726.7396240234375	-243.8517761230469	1360.969482421875	-581.250732421875	-246.2764587402344	1468.509887695312	-767.4420776367188	-182.1030578613281	1470.987548828125	-850.9336547851562	-251.1935119628906	1361.250122070312	-915.7999877929688	-283.3616027832031	1156.82666015625	-953.987548828125	-334.2192687988281	1146.397705078125	-883.2681884765625	-211.5216979980469	911.1561279296875	-940.745361328125	-266.5948791503906	902.1647338867188	-1004.52490234375	-283.4713134765625	1048.947143554688	-978.0111694335938	-235.1162109375	716.6614990234375	-950.9801635742188	-262.4259948730469	811.6246337890625	-1006.514404296875	-204.9344329833984	805.5161743164062	-971.9719848632812	-83.27902984619141	1453.335571289062	-530.7674560546875	-84.84625244140625	1388.007690429688	-461.5924377441406	-106.3910369873047	1108.228271484375	-419.103271484375	-163.604736328125	1103.00048828125	-495.4208374023438	18.35384178161621	902.6577758789062	-508.5480651855469	-14.95931243896484	881.9877319335938	-433.3329467773438	-76.46846008300781	1039.513427734375	-416.8977661132812	43.13653945922852	709.54150390625	-526.005859375	65.88755035400391	783.7034301757812	-509.17724609375	26.32334899902344	777.6546630859375	-448.8022766113281	-111.2527694702148	1665.309326171875	-646.6541748046875	82.41359710693359	1661.542236328125	-764.4469604492188	93.28987121582031	1655.652587890625	-665.4166259765625	-81.60383605957031	1667.829711914062	-783.644287109375	-216.3196411132812	972.4049072265625	-878.0643920898438	-96.96049499511719	979.5455322265625	-531.48046875	-20.0301628112793	1025.107666015625	-597.7279663085938	-104.8982162475586	1016.040222167969	-866.2183227539062	-136.2273559570312	493.1485595703125	-932.0498046875	-155.3533630371094	639.4755249023438	-929.525634765625	-485.9105224609375	207.8922882080078	-731.1779174804688	-300.2334289550781	354.3694458007812	-849.81640625	-344.1564331054688	47.34517669677734	-757.1292114257812	-355.9341125488281	99.84099578857422	-696.56103515625	-438.05810546875	100.2344818115234	-777.7115478515625	-479.1845703125	265.0559692382812	-676.549072265625	-39.22074127197266	499.7401123046875	-666.236572265625	-26.70085334777832	757.8773193359375	-574.8268432617188	-129.2979431152344	29.31775093078613	-758.3248291015625	-38.73177719116211	382.9822387695312	-707.0260009765625	70.93022918701172	40.67826461791992	-841.338134765625	7.100682735443115	38.9646110534668	-872.25439453125	-17.30127143859863	32.62775421142578	-754.1444091796875	-200.1656646728516	30.42306900024414	-804.7819213867188	
